# xmcd
#
# Track frame offsets:
# 150
# 14539
# 31949
# 47705
# 58665
# 72176
# 88387
# 106009
# 121019
# 138129
# 154640
# 169115
#
# Disc length: 2493 seconds
#
#
# Revision: 0
# Processed by: cddbd v1.5.1PL0 Copyright (c) Steve Scherf et al.
# Submitted via: FreeRIP 2.942 
#
DISCID=9409bb0c
DTITLE=Joe Diffie - Thougher Than Nails - Thougher Than Nails 
DYEAR=2004
DGENRE=Country
TTITLE0=Thougher Than Nails
TTITLE1=Nothing But The Radio
TTITLE2=Good News, Bad News
TTITLE3=The More You Drink The Better I Look
TTITLE4=Am I
TTITLE5=Movin' Train
TTITLE6=If I Could Only Bring You Back
TTITLE7=What Would Waylon Do
TTITLE8=Something I Do For Me
TTITLE9=Daddy's Home
TTITLE10=This Time Last Year
TTITLE11=My Redneck Of The Woods
EXTD=
EXTT0=
EXTT1=
EXTT2=
EXTT3=
EXTT4=
EXTT5=
EXTT6=
EXTT7=
EXTT8=
EXTT9=
EXTT10=
EXTT11=
PLAYORDER=
